{
  "asset": {
    "generator": "Khronos glTF Blender I/O v3.4.49",
    "version": "2.0"
  },
  "scene": 0,
  "scenes": [
    {
      "name": "Scene",
      "nodes": [0]
    }
  ],
  "nodes": [
    {
      "mesh": 0,
      "name": "Stone_CSH",
      "scale": [
        0.009999999776482582, 0.009999999776482582, 0.009999999776482582
      ]
    }
  ],
  "materials": [
    {
      "name": "lambert1.001",
      "pbrMetallicRoughness": {
        "baseColorFactor": [
          0.4000000059604645, 0.4000000059604645, 0.4000000059604645, 1
        ],
        "metallicFactor": 0.20000000298023224,
        "roughnessFactor": 0.800000011920929
      }
    }
  ],
  "meshes": [
    {
      "name": "Stone_CSH",
      "primitives": [
        {
          "attributes": {
            "POSITION": 0,
            "TEXCOORD_0": 1,
            "NORMAL": 2
          },
          "indices": 3,
          "material": 0
        }
      ]
    }
  ],
  "accessors": [
    {
      "bufferView": 0,
      "componentType": 5126,
      "count": 349,
      "max": [0.2980678677558899, 0.3779093623161316, 0.29806798696517944],
      "min": [-0.298395574092865, -5.960464477539063e-8, -0.29839545488357544],
      "type": "VEC3"
    },
    {
      "bufferView": 1,
      "componentType": 5126,
      "count": 349,
      "type": "VEC2"
    },
    {
      "bufferView": 2,
      "componentType": 5126,
      "count": 349,
      "type": "VEC3"
    },
    {
      "bufferView": 3,
      "componentType": 5123,
      "count": 504,
      "type": "SCALAR"
    }
  ],
  "bufferViews": [
    {
      "buffer": 0,
      "byteLength": 4188,
      "byteOffset": 0,
      "target": 34962
    },
    {
      "buffer": 0,
      "byteLength": 2792,
      "byteOffset": 4188,
      "target": 34962
    },
    {
      "buffer": 0,
      "byteLength": 4188,
      "byteOffset": 6980,
      "target": 34962
    },
    {
      "buffer": 0,
      "byteLength": 1008,
      "byteOffset": 11168,
      "target": 34963
    }
  ],
  "buffers": [
    {
      "byteLength": 12176,
      "uri": "data:application/octet-stream;base64,"
    }
  ]
}
