{
  "asset": {
    "version": "2.0",
    "generator": "THREE.GLTFExporter r166"
  },
  "scenes": [
    {
      "name": "Scene",
      "nodes": [1]
    }
  ],
  "scene": 0,
  "nodes": [
    {
      "name": "Stone_RADR",
      "extras": {
        "originalName": "RARD_100",
        "transformData": {
          "inheritType": 1,
          "eulerOrder": "ZYX",
          "scalingPivot": [-1.0587911840678754e-22, 0, 4.440892098500626e-16],
          "rotationPivot": [-1.0587911840678754e-22, 0, 4.440892098500626e-16],
          "parentMatrix": {
            "elements": [
              0.01, 0, 0, 0, 0, 0.01, 0, 0, 0, 0, 0.01, 0, 0, 0, 0, 1
            ]
          },
          "parentMatrixWorld": {
            "elements": [
              0.01, 0, 0, 0, 0, 0.01, 0, 0, 0, 0, 0.01, 0, 0, 0, 0, 1
            ]
          }
        }
      },
      "mesh": 0
    },
    {
      "matrix": [0.01, 0, 0, 0, 0, 0.01, 0, 0, 0, 0, 0.01, 0, 0, 0, 0, 1],
      "name": "RADR",
      "extras": {
        "originalName": "MainAnchor",
        "transformData": {
          "inheritType": 1,
          "eulerOrder": "ZYX",
          "parentMatrix": {
            "elements": [1, 0, 0, 0, 0, 1, 0, 0, 0, 0, 1, 0, 0, 0, 0, 1]
          },
          "parentMatrixWorld": {
            "elements": [1, 0, 0, 0, 0, 1, 0, 0, 0, 0, 1, 0, 0, 0, 0, 1]
          }
        }
      },
      "children": [0]
    }
  ],
  "bufferViews": [
    {
      "buffer": 0,
      "byteOffset": 0,
      "byteLength": 4392,
      "target": 34962,
      "byteStride": 12
    },
    {
      "buffer": 0,
      "byteOffset": 4392,
      "byteLength": 4392,
      "target": 34962,
      "byteStride": 12
    },
    {
      "buffer": 0,
      "byteOffset": 8784,
      "byteLength": 2928,
      "target": 34962,
      "byteStride": 8
    }
  ],
  "buffers": [
    {
      "byteLength": 11712,
      "uri": "data:application/octet-stream;base64,"
    }
  ],
  "accessors": [
    {
      "bufferView": 0,
      "componentType": 5126,
      "count": 366,
      "max": [0.2542285919189453, 0.3329167366027832, 0.35515475273132324],
      "min": [-0.2542276382446289, 0, -0.35515427589416504],
      "type": "VEC3"
    },
    {
      "bufferView": 1,
      "componentType": 5126,
      "count": 366,
      "max": [1, 1, 1],
      "min": [-1, -0.8655385375022888, -1],
      "type": "VEC3"
    },
    {
      "bufferView": 2,
      "componentType": 5126,
      "count": 366,
      "max": [1, 0.7139400243759155],
      "min": [0, 0],
      "type": "VEC2"
    }
  ],
  "materials": [
    {
      "pbrMetallicRoughness": {
        "baseColorFactor": [
          0.13286832572150142, 0.13286832572150142, 0.13286832572150142, 1
        ],
        "metallicFactor": 0.5,
        "roughnessFactor": 0.5
      },
      "name": "lambert1"
    }
  ],
  "meshes": [
    {
      "primitives": [
        {
          "mode": 4,
          "attributes": {
            "POSITION": 0,
            "NORMAL": 1,
            "TEXCOORD_0": 2
          },
          "material": 0
        }
      ]
    }
  ]
}
